<?xml version="1.0" standalone="no"?>
<!DOCTYPE svg PUBLIC "-//W3C//DTD SVG 20010904//EN"
 "http://www.w3.org/TR/2001/REC-SVG-20010904/DTD/svg10.dtd">
<svg version="1.0" xmlns="http://www.w3.org/2000/svg"
 width="1568.000000pt" height="1568.000000pt" viewBox="0 0 1568.000000 1568.000000"
 preserveAspectRatio="xMidYMid meet">
<g transform="translate(0.000000,1568.000000) scale(0.100000,-0.100000)"
fill="#000000" stroke="none">
<path d="M7369 11796 c-2 -3 -22 -7 -44 -10 -22 -3 -60 -10 -85 -17 -25 -6
-54 -13 -65 -15 -48 -9 -66 -13 -180 -39 -158 -36 -156 -35 -185 -41 -14 -3
-33 -7 -42 -10 -9 -3 -25 -7 -35 -9 -10 -2 -38 -9 -63 -15 -25 -7 -55 -13 -67
-14 -13 -1 -26 -6 -30 -9 -3 -4 -17 -7 -30 -7 -14 0 -32 -4 -41 -9 -15 -8 -50
-16 -109 -26 -12 -2 -27 -6 -33 -10 -5 -3 -20 -8 -33 -11 -36 -7 -60 -12 -94
-23 -17 -5 -34 -7 -37 -3 -3 3 -6 1 -6 -5 0 -10 21 -20 60 -28 21 -5 118 -34
165 -50 22 -7 74 -22 115 -35 41 -12 82 -24 90 -27 8 -3 22 -7 30 -9 8 -2 83
-26 165 -54 83 -28 160 -53 172 -55 12 -3 35 -10 50 -16 16 -6 35 -12 43 -14
8 -2 56 -18 105 -35 50 -18 95 -33 100 -35 6 -1 21 -6 35 -12 14 -6 79 -29
145 -51 173 -59 224 -78 232 -85 3 -4 15 -7 25 -7 10 0 26 -4 36 -10 9 -5 69
-28 132 -50 63 -23 125 -46 138 -51 48 -20 69 -28 127 -50 33 -12 64 -26 70
-31 5 -4 18 -8 30 -8 12 0 25 -4 31 -8 5 -4 34 -18 64 -29 169 -65 198 -76
225 -88 17 -8 86 -37 155 -65 69 -28 148 -60 175 -72 28 -11 64 -27 80 -33 17
-7 50 -22 75 -33 248 -109 325 -142 340 -147 3 -1 31 -13 63 -28 31 -15 81
-38 110 -51 28 -13 91 -42 139 -64 159 -75 154 -74 212 -58 60 17 118 34 241
71 50 15 97 28 105 30 8 2 15 4 15 5 0 1 7 3 15 5 8 2 38 11 65 19 117 35 439
125 505 142 8 2 56 15 105 29 50 14 102 28 118 31 15 4 27 9 27 13 0 3 -21 15
-48 25 -26 10 -70 29 -98 41 -89 40 -354 151 -524 219 -91 37 -174 71 -185 76
-11 5 -69 28 -130 50 -60 23 -119 45 -130 50 -37 16 -233 90 -238 90 -3 0 -22
8 -43 17 -22 9 -46 18 -54 19 -8 2 -23 7 -35 13 -11 5 -40 17 -65 25 -43 14
-114 39 -155 56 -63 25 -105 39 -105 34 0 -4 -6 -2 -12 3 -7 6 -31 16 -53 22
-22 7 -49 17 -60 22 -18 8 -275 96 -300 103 -5 1 -125 40 -265 86 -140 46
-256 83 -257 82 -1 0 -26 8 -55 19 -29 10 -58 19 -65 19 -6 0 -24 5 -40 12
-15 6 -32 12 -38 13 -5 2 -50 15 -100 30 -49 14 -94 27 -100 28 -5 2 -14 5
-20 8 -5 4 -23 10 -40 14 -16 5 -34 9 -40 11 -5 2 -19 5 -30 8 -11 2 -41 11
-67 19 -27 8 -48 13 -48 11 0 -3 -9 0 -19 6 -18 9 -108 36 -157 46 -11 2 -49
13 -84 24 -63 20 -83 24 -91 16z"/>
<path d="M5455 11322 c-27 -8 -57 -18 -66 -22 -9 -5 -34 -12 -55 -16 -48 -10
-46 -9 -66 -18 -9 -4 -22 -9 -30 -10 -34 -6 -581 -180 -745 -237 -46 -16 -83
-26 -83 -23 0 2 -10 -2 -22 -9 -13 -8 -58 -25 -102 -38 l-79 -23 34 -14 c19
-8 41 -16 50 -17 9 -2 39 -11 65 -20 27 -9 58 -19 68 -21 10 -2 35 -9 55 -16
20 -7 38 -13 41 -13 3 -1 12 -4 20 -7 8 -3 31 -10 50 -16 73 -21 486 -154 505
-162 11 -5 38 -14 60 -20 22 -6 49 -15 60 -20 11 -5 40 -16 65 -24 130 -43
446 -156 495 -176 11 -5 52 -20 90 -34 39 -13 84 -30 100 -37 17 -6 35 -13 40
-15 23 -6 279 -106 289 -112 6 -4 13 -7 16 -7 5 0 160 -60 195 -76 11 -4 61
-25 110 -45 50 -20 104 -42 120 -49 124 -55 195 -82 199 -77 3 3 6 0 6 -6 0
-7 6 -12 13 -12 12 0 80 -29 119 -50 10 -6 22 -10 27 -10 5 0 57 -22 116 -50
59 -27 108 -50 111 -50 2 0 38 -16 80 -35 41 -19 77 -35 79 -35 2 0 60 -27
130 -60 70 -33 128 -60 130 -60 2 0 56 -25 121 -56 116 -55 117 -56 163 -43
25 7 51 15 56 19 6 4 35 15 65 25 30 10 60 20 65 24 6 3 15 6 20 7 6 1 78 28
160 59 83 32 220 81 305 111 85 30 162 57 170 61 8 3 20 7 25 8 6 2 44 15 85
30 41 14 95 33 120 41 25 9 58 21 74 28 l28 14 -61 23 c-34 13 -61 27 -61 31
0 5 -4 8 -10 8 -10 0 -71 27 -251 113 -64 31 -143 67 -175 81 -33 13 -98 43
-146 65 -48 23 -90 41 -93 41 -2 0 -32 13 -65 29 -34 17 -78 35 -98 42 -20 6
-41 15 -47 19 -5 4 -59 28 -120 53 -60 25 -132 56 -160 68 -27 13 -54 24 -60
25 -10 2 -182 73 -240 98 -16 8 -41 17 -55 21 -14 4 -47 18 -75 30 -69 30
-210 85 -219 85 -4 0 -22 6 -39 14 -44 19 -294 116 -300 116 -3 0 -18 5 -34
12 -34 14 -31 13 -68 23 -16 4 -34 11 -40 15 -5 5 -26 13 -45 18 -19 6 -71 24
-115 40 -44 16 -109 39 -145 51 -36 12 -72 25 -80 28 -8 3 -22 7 -30 9 -8 2
-23 7 -35 13 -11 5 -38 15 -60 21 -22 6 -49 15 -60 20 -29 12 -331 111 -347
114 -7 1 -80 24 -162 50 -171 56 -183 58 -251 38z"/>
<path d="M4062 10366 c-133 -44 -246 -82 -250 -83 -21 -5 -595 -212 -647 -233
-11 -4 -58 -22 -105 -40 -47 -18 -98 -38 -115 -45 -16 -7 -95 -38 -175 -68
-80 -31 -163 -64 -185 -73 -22 -10 -44 -19 -50 -20 -5 -1 -32 -13 -60 -25 -27
-13 -52 -24 -55 -24 -3 -1 -18 -8 -35 -15 -16 -7 -39 -15 -49 -17 -11 -2 -26
-9 -34 -15 -8 -7 -19 -13 -26 -14 -14 -2 -274 -112 -301 -127 -11 -6 -22 -12
-25 -12 -6 -1 -20 -7 -257 -114 -100 -44 -186 -81 -192 -81 -6 0 -11 -3 -11
-8 0 -7 -15 -15 -90 -46 -19 -8 -39 -18 -43 -22 -4 -4 -13 -9 -20 -10 -7 -1
-70 -30 -142 -65 -71 -35 -132 -64 -135 -64 -3 -1 -41 -20 -85 -42 -222 -115
-395 -200 -395 -195 0 3 -8 -2 -17 -10 -10 -8 -40 -26 -68 -39 -27 -13 -52
-26 -55 -29 -3 -3 -41 -23 -85 -45 -44 -22 -82 -43 -85 -46 -3 -3 -23 -14 -45
-25 -22 -10 -42 -20 -45 -23 -3 -4 -44 -26 -92 -51 l-86 -44 31 -14 c18 -8 37
-15 42 -16 12 -3 42 -15 70 -26 11 -5 72 -27 135 -50 63 -22 131 -48 150 -55
53 -22 94 -38 103 -40 4 -2 9 -4 12 -5 3 -1 8 -3 13 -5 11 -3 44 -16 67 -25
55 -24 182 -70 193 -70 6 0 12 -4 12 -8 0 -5 18 -14 40 -21 23 -7 128 -48 235
-93 l194 -81 82 47 c45 25 86 46 90 46 5 0 9 4 9 8 0 4 12 13 28 20 15 7 45
23 67 36 100 58 122 71 153 87 18 10 38 22 45 27 7 5 66 38 132 72 153 81 159
84 165 90 3 3 25 15 50 28 25 12 74 38 110 58 95 53 274 142 284 142 5 0 12 4
15 9 10 14 411 215 411 206 0 -4 4 -3 8 3 4 6 52 32 107 59 55 26 150 71 210
100 99 48 222 106 235 110 13 4 61 26 120 53 89 41 179 81 188 82 4 1 13 7 20
13 8 6 24 13 35 14 12 2 24 8 25 13 2 6 8 10 13 10 5 0 143 56 307 125 163 69
315 133 337 142 22 8 49 19 60 24 85 35 386 153 410 160 17 5 39 13 50 18 31
13 93 37 175 66 41 15 84 30 95 35 41 16 90 35 95 35 3 0 20 7 38 14 l34 14
-129 47 c-70 26 -182 66 -248 89 -66 23 -127 45 -135 48 -8 3 -19 7 -25 9 -5
1 -71 23 -145 48 -74 26 -144 49 -155 51 -23 6 -141 44 -170 55 -48 19 -157
50 -173 49 -9 -1 -126 -38 -260 -83z"/>
<path d="M12127 10424 c-3 -4 -17 -8 -29 -10 -32 -5 -45 -8 -113 -28 -33 -10
-67 -19 -76 -21 -9 -2 -47 -12 -85 -24 -38 -11 -87 -24 -109 -30 -22 -5 -101
-27 -175 -49 -74 -22 -189 -56 -255 -76 -66 -19 -187 -56 -270 -82 -82 -25
-172 -53 -200 -61 -27 -8 -59 -18 -70 -23 -17 -7 -309 -102 -325 -105 -14 -3
-57 -17 -75 -25 -27 -12 -376 -131 -397 -135 -9 -2 -25 -8 -35 -13 -10 -6 -22
-11 -28 -12 -5 -1 -20 -6 -33 -11 -13 -5 -28 -9 -33 -9 -6 0 -23 -7 -39 -15
-16 -8 -37 -16 -47 -18 -10 -2 -29 -9 -43 -14 -32 -14 -222 -85 -235 -88 -5
-1 -23 -7 -38 -14 -16 -6 -59 -21 -95 -34 -37 -12 -69 -24 -72 -27 -3 -3 -23
-11 -45 -19 -22 -8 -51 -18 -65 -24 -14 -6 -27 -11 -30 -12 -3 -1 -18 -7 -35
-14 -16 -6 -55 -21 -85 -32 -30 -11 -75 -29 -100 -39 -25 -10 -173 -70 -330
-134 -158 -64 -291 -116 -298 -116 -7 0 -12 -4 -12 -10 0 -5 -8 -10 -18 -10
-10 0 -22 -3 -26 -7 -4 -5 -11 -8 -14 -9 -12 -1 -88 -33 -177 -75 -27 -12 -52
-23 -55 -24 -16 -5 -82 -34 -203 -89 -44 -20 -81 -36 -84 -36 -4 0 -31 -12
-62 -27 -31 -15 -58 -28 -61 -28 -3 -1 -27 -12 -55 -24 -27 -13 -84 -39 -125
-58 -41 -20 -100 -47 -130 -61 -30 -15 -57 -27 -60 -27 -3 -1 -45 -20 -94 -43
-49 -23 -93 -42 -97 -42 -5 0 -9 -4 -9 -10 0 -5 -3 -9 -7 -8 -5 1 -62 -24
-128 -56 -147 -71 -539 -267 -580 -290 -16 -9 -35 -16 -42 -16 -6 0 -13 -3
-15 -7 -1 -5 -75 -45 -163 -90 -224 -114 -249 -127 -255 -133 -3 -3 -30 -18
-60 -34 -164 -85 -375 -201 -378 -208 -2 -4 -12 -8 -22 -8 -10 0 -20 -4 -22
-8 -2 -6 -166 -100 -418 -240 -25 -14 -56 -32 -70 -42 -14 -9 -32 -20 -40 -24
-8 -4 -24 -12 -35 -19 -11 -7 -76 -46 -145 -87 -69 -41 -134 -80 -145 -87 -11
-7 -27 -16 -35 -20 -8 -4 -123 -74 -255 -156 -132 -83 -249 -155 -260 -161
-42 -24 -216 -137 -225 -146 -3 -3 -17 -11 -32 -19 -15 -8 -37 -23 -48 -33
-11 -10 -20 -17 -20 -14 0 2 -37 -20 -83 -50 -136 -89 -153 -101 -147 -107 3
-2 104 -54 225 -115 307 -154 399 -202 409 -213 6 -5 18 -9 27 -9 10 0 19 -4
21 -8 2 -5 46 -30 98 -57 52 -26 129 -67 170 -90 41 -23 116 -64 165 -90 50
-26 104 -56 120 -65 17 -10 51 -29 77 -44 80 -44 136 -75 293 -164 82 -47 155
-85 160 -85 13 0 169 103 173 115 2 4 8 8 14 8 6 0 25 11 43 24 39 30 435 296
441 296 5 0 135 86 151 100 7 5 24 15 38 22 14 6 25 15 25 20 0 4 5 8 11 8 7
0 34 16 61 36 28 19 57 38 66 42 10 4 49 29 89 55 39 26 76 47 82 47 6 0 11 5
11 10 0 6 4 10 9 10 5 0 37 18 70 40 33 22 63 40 67 40 4 0 16 7 26 17 20 18
48 35 93 56 17 8 36 21 44 30 7 10 17 17 22 17 4 0 83 45 176 101 92 56 184
110 203 120 19 11 49 28 65 39 17 10 41 25 55 33 14 7 48 26 75 42 28 16 59
33 70 39 10 6 25 17 33 24 7 7 18 10 23 7 5 -4 9 -2 9 3 0 5 8 12 18 16 9 3
24 10 32 15 26 18 171 101 176 101 2 0 21 11 42 23 20 13 73 43 117 67 95 51
143 77 292 159 61 33 116 61 121 61 5 0 15 7 22 15 7 8 16 13 20 10 5 -3 10
-2 12 3 3 7 31 22 223 120 61 30 112 59 113 64 2 4 11 8 21 8 9 0 21 4 26 9
11 9 142 76 430 217 99 49 182 92 183 96 2 5 10 8 17 8 7 0 38 13 68 29 31 16
58 27 61 23 3 -3 6 0 6 6 0 7 4 12 10 12 10 0 79 31 240 107 52 25 118 56 145
68 184 86 227 105 230 105 2 0 32 13 67 29 123 57 183 84 188 86 3 1 21 8 40
17 149 66 843 357 865 363 6 1 21 7 35 12 14 6 95 39 180 72 85 34 162 65 170
70 9 5 30 12 48 15 17 4 34 12 37 17 4 5 13 9 22 9 8 0 29 6 46 14 18 7 57 23
87 34 30 11 86 33 124 47 74 29 254 95 271 99 6 2 17 6 25 9 14 6 204 74 225
81 6 2 17 5 25 8 72 27 146 53 153 54 4 1 9 3 12 4 3 1 10 4 15 5 6 1 12 4 15
5 3 1 8 3 13 5 4 1 14 4 22 8 13 5 267 89 280 92 3 1 12 4 20 8 16 6 118 39
135 44 6 1 96 30 200 64 105 33 228 72 275 86 47 14 93 29 102 34 10 5 26 9
36 9 10 0 22 3 25 7 8 7 -359 193 -380 193 -7 0 -13 5 -13 10 0 6 -4 10 -9 10
-6 0 -61 24 -123 54 -162 77 -264 124 -338 158 -36 17 -85 39 -110 51 -25 11
-47 21 -50 22 -3 0 -32 14 -65 29 -33 16 -96 44 -140 63 -44 20 -100 44 -125
55 -25 11 -67 30 -95 42 -27 13 -66 28 -85 36 -19 7 -39 17 -44 22 -12 10 -30
11 -39 2z"/>
<path d="M5900 9780 c-80 -32 -156 -62 -170 -68 -14 -5 -95 -38 -180 -72 -139
-56 -202 -82 -265 -110 -11 -5 -65 -28 -120 -51 -55 -23 -116 -49 -135 -57
-19 -9 -39 -17 -45 -18 -5 -1 -37 -15 -70 -30 -33 -15 -62 -28 -65 -29 -3 0
-14 -6 -26 -12 -12 -7 -43 -21 -70 -32 -27 -10 -80 -34 -119 -52 -38 -18 -72
-33 -75 -34 -20 -7 -96 -41 -275 -125 -94 -44 -125 -57 -138 -58 -4 -1 -15 -8
-23 -17 -9 -8 -24 -15 -33 -15 -10 0 -24 -7 -31 -15 -7 -8 -18 -15 -26 -15
-12 0 -215 -99 -594 -289 -298 -149 -365 -184 -368 -193 -2 -4 -12 -8 -22 -8
-10 0 -25 -6 -32 -13 -7 -6 -38 -23 -68 -37 -30 -13 -62 -29 -70 -36 -8 -6
-30 -17 -47 -25 -18 -8 -33 -17 -33 -21 0 -5 -9 -8 -20 -8 -11 0 -20 -3 -20
-7 0 -5 -10 -13 -23 -18 -36 -17 -172 -90 -177 -95 -3 -3 -34 -20 -70 -38 -85
-44 -124 -66 -130 -73 -3 -3 -21 -13 -40 -22 -19 -10 -53 -28 -75 -42 -22 -14
-47 -28 -55 -32 -8 -4 -48 -26 -88 -50 -41 -24 -75 -43 -77 -43 -2 0 -36 -19
-75 -41 l-72 -42 69 -33 c37 -19 74 -34 81 -34 6 0 12 -4 12 -10 0 -5 4 -10
10 -10 5 0 40 -14 77 -31 38 -17 93 -43 123 -56 30 -14 155 -75 278 -134 122
-60 225 -109 228 -109 3 0 18 -9 32 -19 15 -10 29 -19 32 -18 7 1 213 -103
227 -115 7 -6 13 -7 13 -3 0 4 6 2 14 -4 7 -6 51 -30 96 -52 62 -31 88 -39 99
-32 9 5 43 25 76 43 33 18 67 39 76 46 8 8 18 14 22 14 3 0 66 36 141 80 74
44 140 80 145 80 6 0 11 5 11 10 0 6 4 10 8 10 5 0 94 48 198 106 104 58 214
120 244 137 30 16 69 38 85 47 17 9 73 39 125 66 52 27 97 51 100 54 5 5 49
28 260 137 41 21 77 41 78 46 2 4 12 7 22 7 10 0 21 4 24 9 3 5 185 98 403
206 219 108 420 207 446 221 27 13 55 24 62 24 7 0 15 3 17 8 2 4 39 24 84 44
44 20 112 51 150 69 276 128 298 138 534 241 113 49 229 101 258 114 29 13 55
24 59 24 3 0 24 9 47 20 35 16 236 100 301 125 11 5 23 7 28 7 4 -1 7 2 7 7 0
5 12 12 28 17 15 4 29 8 32 9 29 9 90 39 90 44 0 3 -26 17 -58 31 -31 13 -100
44 -152 69 -52 24 -97 45 -100 46 -12 4 -65 27 -113 49 -29 13 -97 43 -152 66
-55 23 -106 47 -112 52 -7 6 -13 7 -13 4 0 -4 -10 -1 -22 6 -13 7 -25 13 -28
14 -6 1 -74 30 -117 50 -17 8 -34 14 -37 14 -3 0 -35 14 -71 30 -36 17 -68 30
-71 30 -3 0 -20 6 -37 14 -67 30 -286 116 -294 115 -4 0 -73 -27 -153 -59z"/>
<path d="M14209 9426 c-2 -3 -16 -7 -31 -10 -14 -2 -36 -9 -47 -16 -12 -6 -21
-7 -21 -3 0 4 -4 4 -8 -2 -6 -9 -109 -49 -153 -59 -8 -2 -56 -18 -105 -36 -49
-18 -93 -33 -99 -34 -5 -2 -17 -6 -25 -9 -21 -9 -213 -78 -225 -81 -5 -1 -21
-8 -35 -14 -14 -6 -82 -31 -152 -56 -125 -45 -423 -158 -463 -176 -11 -4 -51
-20 -90 -35 -79 -30 -304 -119 -350 -139 -39 -17 -99 -41 -105 -42 -3 0 -27
-11 -55 -23 -27 -13 -54 -24 -60 -25 -5 -1 -27 -10 -49 -19 -21 -9 -42 -17
-47 -17 -5 0 -9 -5 -9 -10 0 -6 -3 -9 -7 -8 -15 3 -65 -15 -124 -43 -33 -16
-61 -29 -64 -29 -2 0 -28 -11 -57 -24 -29 -13 -81 -36 -115 -50 -35 -14 -87
-37 -117 -51 -30 -14 -57 -25 -60 -25 -2 0 -37 -15 -78 -34 -143 -66 -194 -89
-278 -126 -47 -21 -115 -52 -152 -69 -38 -17 -96 -44 -130 -60 -35 -16 -119
-56 -188 -89 -69 -33 -165 -79 -215 -102 -151 -71 -728 -360 -742 -372 -7 -6
-13 -7 -13 -4 0 4 -7 0 -16 -8 -8 -9 -24 -16 -34 -16 -10 0 -20 -4 -22 -9 -1
-5 -21 -17 -43 -28 -79 -38 -380 -195 -390 -203 -5 -4 -46 -27 -90 -50 -44
-24 -118 -64 -165 -90 -47 -26 -92 -50 -100 -54 -8 -3 -45 -23 -81 -44 -37
-20 -102 -57 -145 -81 -44 -24 -87 -51 -96 -59 -10 -8 -18 -11 -18 -7 0 4 -8
2 -17 -6 -10 -8 -38 -25 -63 -39 -25 -13 -47 -26 -50 -29 -3 -3 -18 -13 -35
-21 -16 -8 -59 -31 -94 -52 -34 -21 -67 -38 -72 -38 -5 0 -9 -4 -9 -8 0 -4
-12 -13 -27 -20 -16 -6 -80 -43 -143 -82 -63 -38 -135 -81 -160 -95 -25 -14
-52 -30 -60 -35 -8 -6 -85 -53 -170 -105 -85 -52 -160 -98 -166 -104 -6 -5
-25 -16 -42 -25 -17 -9 -50 -28 -74 -43 -24 -16 -52 -33 -63 -40 -64 -39 -201
-127 -205 -132 -7 -8 -37 -26 -77 -47 -18 -9 -33 -20 -33 -25 0 -5 -4 -9 -10
-9 -11 0 -277 -170 -302 -194 -10 -9 -20 -16 -22 -16 -5 0 -134 -84 -152 -99
-5 -4 -21 -14 -35 -21 -13 -7 -26 -16 -29 -19 -3 -4 -39 -29 -80 -56 -41 -27
-78 -54 -82 -60 -4 -5 -8 -6 -8 -2 0 4 -10 -1 -22 -13 -12 -11 -25 -20 -29
-20 -4 0 -14 -6 -21 -12 -7 -7 -42 -33 -78 -58 -36 -24 -66 -48 -68 -52 -2 -4
-7 -8 -12 -8 -5 0 -63 -38 -130 -84 -93 -65 -118 -87 -108 -96 25 -21 217
-140 227 -140 5 0 11 -3 13 -8 2 -4 77 -54 168 -111 91 -57 167 -108 168 -112
2 -5 8 -9 13 -9 5 0 50 -27 100 -60 50 -33 94 -60 99 -60 5 0 10 -3 12 -8 2
-4 64 -47 138 -96 74 -49 137 -93 138 -98 2 -4 10 -8 18 -8 8 0 14 -4 14 -10
0 -5 6 -10 14 -10 8 0 16 -3 18 -7 2 -5 66 -51 143 -102 77 -52 178 -123 225
-156 47 -34 95 -67 107 -73 12 -7 27 -18 35 -24 26 -26 159 -118 168 -118 6 0
10 -3 10 -8 0 -4 9 -13 19 -19 20 -12 22 -11 166 102 17 13 75 59 130 102 55
42 105 82 111 88 7 5 24 19 40 30 26 19 62 47 128 98 16 12 45 33 65 47 20 14
45 33 56 43 11 10 32 26 48 35 15 9 27 20 27 24 0 4 7 8 15 8 8 0 15 3 15 8 0
4 23 22 50 41 28 19 50 38 50 43 0 4 5 8 10 8 6 0 16 4 23 10 53 43 118 90
126 90 5 0 11 3 13 8 2 4 32 28 68 54 36 26 70 51 75 56 6 4 69 49 140 100 72
51 137 98 146 105 8 7 23 17 31 22 31 20 135 92 204 142 96 69 195 137 399
273 94 63 176 120 183 127 7 7 19 13 27 13 7 0 15 3 17 8 5 11 95 72 106 72 6
0 12 4 14 8 3 8 452 301 533 347 28 16 52 32 55 35 3 3 17 11 33 19 15 8 27
18 27 23 0 4 5 8 11 8 9 0 49 24 209 125 19 12 53 33 75 46 22 13 46 29 53 36
7 7 17 13 22 13 7 0 223 128 270 160 8 6 23 13 33 16 9 4 17 10 17 15 0 5 4 9
9 9 5 0 45 21 88 46 81 49 100 60 273 159 58 33 107 63 108 67 2 4 8 8 14 8 5
0 23 9 39 21 16 11 29 17 29 13 0 -4 8 0 18 8 9 9 44 30 77 48 33 17 78 42
100 54 90 51 315 176 385 213 41 22 116 62 165 89 50 26 122 65 160 86 39 21
113 59 165 85 52 27 97 51 100 54 3 3 172 88 375 190 204 101 373 188 376 192
3 5 9 8 13 7 4 -1 54 21 111 49 58 28 110 51 115 51 6 0 10 5 10 10 0 6 6 10
13 10 7 0 38 12 68 26 30 15 92 44 139 66 47 22 123 58 170 81 47 23 86 40 88
39 1 -1 16 5 32 13 16 8 31 14 33 13 2 -2 10 2 18 8 8 7 122 60 254 118 132
59 251 112 265 118 14 6 27 12 30 13 7 2 47 19 113 49 31 14 57 22 57 18 0 -4
4 -1 9 6 4 7 14 14 22 16 8 1 23 7 34 12 11 6 46 21 78 34 31 12 57 25 57 29
0 3 -42 30 -93 60 -50 30 -110 66 -132 80 -22 14 -42 26 -45 26 -3 0 -16 8
-30 17 -29 18 -136 80 -200 116 -25 13 -70 40 -101 58 -31 19 -62 34 -68 34
-6 0 -11 4 -11 9 0 5 -8 11 -17 14 -10 4 -36 17 -58 30 -22 13 -76 43 -120 67
-44 24 -91 50 -105 57 -14 8 -61 34 -105 59 -44 24 -100 54 -125 66 -25 12
-47 25 -50 28 -3 3 -36 21 -73 40 -38 19 -71 38 -73 42 -5 8 -48 11 -55 4z"/>
</g>
</svg>
